<svg xmlns="http://www.w3.org/2000/svg" >

    <!-- ITEMS -->

    <symbol id="icon-consul" viewBox="0 0 24 24"><path d="M15.787 7.531c-5.107 2.785-12.72 9.177-15.787 15.469h2.939c.819-2.021 2.522-4.536 3.851-5.902 8.386 3.747 17.21-2.775 17.21-11.343 0-1.535-.302-3.136-.92-4.755-2.347 3.119-5.647 1.052-10.851 1.625-7.657.844-11.162 6.797-8.764 11.54 3.506-3.415 9.523-6.38 12.322-6.634z"/></symbol>

    <symbol id="icon-king" viewBox="0 0 24 24"><path d="M3 16 0 6l7.104 4L12 2l4.896 8L24 6l-3 10H3zm0 2v4h18v-4H3z"/></symbol>

    <symbol id="icon-knowledge" viewBox="0 0 24 24"><path d="m12 13 5-1 2-4h-3l3-2c2-1 3-4 3-6l-7 2-2 3V3L9 6l-1 4-1-3c-2 3-4 6-2 9l5-4-8 12 3-1 2-5c4 1 7-2 8-4l-3-1z"/></symbol>

    <symbol id="icon-religion" viewBox="0 0 24 24"><path d="M17 12a5 5 0 1 1-10 0 5 5 0 0 1 10 0zm-5-7h1V3h-2v2h1zM8 6 6 5 5 6l1 2 2-2zm10 2 1-2-1-1-2 1 2 2zm-6 11h-1v2h2v-2h-1zm4-1 2 1 1-1-1-2-2 2zM5 12v-1H3v2h2v-1zm14-1a7 7 0 0 1 0 2h2v-2h-2zM6 16l-1 2 1 1 2-1-2-2z"/></symbol>
    
    <symbol id="icon-explorer" viewBox="0 0 24 24"><path d="m14 9-2-9-2 9-2 1-8 2 8 2 2 1 2 9 2-9 2-1 8-2-8-2-2-1zm-2 5a2 2 0 1 1 0-4 2 2 0 0 1 0 4zm7 5-3-2 1-1 2 3zM15 7l4-2-2 4-2-2zM9 17l-4 2 2-4 2 2zM7 8 5 5l3 2-1 1z"/></symbol>

    <!-- UI -->

</svg>